<svg t="1730733819354" class="icon" viewBox="0 0 1024 1024" version="1.1" xmlns="http://www.w3.org/2000/svg" p-id="3570" width="24" height="24"><path d="M942.08 200.704s-1.024 0 0 0c-1.024-2.048-1.024-4.096-2.048-6.144-1.024-1.024-2.048-3.072-3.072-4.096l-1.024-1.024-1.024-1.024c-1.024-1.024-2.048-2.048-4.096-2.048h-1.024c-2.048-1.024-3.072-1.024-5.12-1.024h-1.024C788.48 163.84 649.216 153.6 512 153.6s-276.48 10.24-412.672 30.72h-1.024c-2.048 0-3.072 1.024-5.12 1.024H92.16c-1.024 1.024-3.072 1.024-4.096 2.048l-1.024 1.024-1.024 1.024c-1.024 1.024-2.048 2.048-3.072 4.096v1.024c-1.024 2.048-1.024 3.072-2.048 5.12C61.44 304.128 51.2 408.576 51.2 512s10.24 207.872 30.72 311.296c2.048 8.192 8.192 15.36 17.408 16.384C235.52 860.16 374.784 870.4 512 870.4s276.48-10.24 412.672-30.72c8.192-1.024 15.36-8.192 17.408-16.384 20.48-103.424 30.72-207.872 30.72-311.296s-10.24-207.872-30.72-311.296z m-60.416 19.456c-44.032 50.176-96.256 97.28-156.672 142.336-70.656 53.248-142.336 95.232-212.992 126.976-77.824-36.864-148.48-78.848-212.992-126.976-56.32-41.984-108.544-90.112-156.672-142.336C265.216 202.752 389.12 194.56 512 194.56s246.784 8.192 369.664 25.6z m22.528 580.608C774.144 820.224 642.048 829.44 512 829.44s-262.144-9.216-392.192-28.672C101.376 705.536 92.16 608.256 92.16 512c0-87.04 8.192-175.104 22.528-262.144 48.128 53.248 102.4 102.4 159.744 145.408 69.632 52.224 144.384 96.256 229.376 135.168 3.072 1.024 6.144 2.048 8.192 2.048 3.072 0 5.12-1.024 8.192-2.048 76.8-32.768 153.6-78.848 229.376-135.168 60.416-46.08 114.688-94.208 159.744-144.384C924.672 337.92 931.84 424.96 931.84 512c0 96.256-9.216 193.536-27.648 288.768z" p-id="3571" fill="#707070"></path></svg>