<?xml version="1.0" standalone="no"?><!DOCTYPE svg PUBLIC "-//W3C//DTD SVG 1.1//EN" "http://www.w3.org/Graphics/SVG/1.1/DTD/svg11.dtd"><svg t="1730716618405" class="icon" viewBox="0 0 1024 1024" version="1.1" xmlns="http://www.w3.org/2000/svg" p-id="7903" width="32" height="32" xmlns:xlink="http://www.w3.org/1999/xlink"><path d="M512.146286 73.142857a438.857143 438.857143 0 1 1-295.789715 114.541714h-51.638857a38.180571 38.180571 0 0 1 0-76.361142h152.649143a37.888 37.888 0 0 1 38.107429 38.180571v152.649143a38.180571 38.180571 0 1 1-76.288 0v-68.022857a362.496 362.496 0 1 0 170.349714-79.286857l-25.161143-72.923429c28.891429-5.851429 58.294857-8.777143 87.771429-8.777143z m-0.219429 133.632c21.065143 0 38.180571 17.115429 38.180572 38.180572v245.613714l146.358857 84.48A38.180571 38.180571 0 1 1 658.285714 641.316571L493.056 545.792A39.789714 39.789714 0 0 1 473.746286 512V244.955429c0-21.065143 17.115429-38.180571 38.180571-38.180572z" fill="#707070" opacity=".6" p-id="7904"></path></svg>