<?xml version="1.0" standalone="no"?><!DOCTYPE svg PUBLIC "-//W3C//DTD SVG 1.1//EN" "http://www.w3.org/Graphics/SVG/1.1/DTD/svg11.dtd"><svg t="1730978445258" class="icon" viewBox="0 0 1024 1024" version="1.1" xmlns="http://www.w3.org/2000/svg" p-id="5332" xmlns:xlink="http://www.w3.org/1999/xlink" width="16" height="16"><path d="M242.346667 114.688l527.701333 1.706667 135.850667 358.741333-787.797334 10.24z" fill="#717071" p-id="5333"></path><path d="M726.016 307.882667c-1.365333 0-0.341333-4.096-1.024-0.341334 3.072-11.264 25.941333-93.525333 25.941333-93.525333l-65.536-23.552-28.330666 98.304-1.024 1.024c-27.989333-5.802667-80.554667 50.858667-108.202667 176.128-9.216 41.642667-32.085333 149.162667-47.104 228.693333l152.576 48.469334c27.306667-73.045333 60.757333-173.738667 76.8-221.866667 40.277333-121.514667 25.941333-198.314667-4.096-213.333333z" fill="#A77BB3" p-id="5334"></path><path d="M754.005333 212.992c-2.730667 9.898667-21.162667 13.312-40.96 7.850667-19.797333-5.802667-33.450667-18.432-30.72-28.330667 2.730667-9.898667 21.162667-13.312 40.96-7.850667 19.797333 5.802667 33.450667 18.432 30.72 28.330667z" fill="#A77BB3" p-id="5335"></path><path d="M499.370667 251.904c-1.365333 1.024-2.730667-3.072-1.365334 0.341333-3.754667-11.264-32.426667-91.477333-32.426666-91.477333l-80.213334 22.869333 32.768 96.938667-0.682666 1.365333c-31.744 13.312-49.152 92.501333 1.365333 210.261334 16.725333 39.253333 15.701333 1.706667 50.176 74.752l186.368-69.973334c-18.432-75.776-5.802667-28.330667-19.797333-77.482666C600.746667 296.96 538.282667 245.077333 499.370667 251.904z" fill="#D7EEFB" p-id="5336"></path><path d="M467.968 158.037333c3.413333 9.898667-12.629333 24.234667-35.84 32.426667-23.210667 8.192-44.714667 6.826667-48.128-3.072s12.629333-24.234667 35.84-32.426667c23.210667-7.850667 44.714667-6.485333 48.128 3.072z" fill="#FFFFFF" p-id="5337"></path><path d="M494.933333 591.189333l-28.672-158.378666c-5.802667-59.050667-50.858667-104.789333-106.837333-113.664l-9.216-29.013334-67.584 7.509334 9.216 29.013333c-51.882667 20.48-86.016 73.386667-80.213333 131.413333l22.186666 182.272c39.594667 12.288 147.456 6.826667 261.12-49.152z" fill="#BAE2F8" p-id="5338"></path><path d="M419.84 289.109333l-201.728 19.797334 4.778667 47.786666h0.341333c4.778667 8.533333 48.810667 11.264 101.717333 6.144 52.906667-5.12 95.232-16.384 98.304-25.6h1.365334L419.84 289.109333z" fill="#D2D2D3" p-id="5339"></path><path d="M418.474667 283.648c1.024 9.557333-43.349333 21.504-98.645334 26.965333-55.296 5.461333-101.034667 2.048-102.058666-7.509333-1.024-9.557333 43.349333-21.504 98.645333-26.965333 55.296-5.12 101.034667-2.048 102.058667 7.509333z" fill="#D2D2D3" p-id="5340"></path><path d="M308.224 437.930667c-3.072 17.749333-20.138667 29.354667-37.546667 26.282666-17.749333-3.072-29.354667-20.138667-26.282666-37.546666 3.072-17.749333 20.138667-29.354667 37.546666-26.282667 17.749333 2.730667 29.354667 19.797333 26.282667 37.546667z" fill="#FFFFFF" p-id="5341"></path><path d="M864.938667 906.922667c-1.706667 10.581333-8.192 18.090667-18.090667 18.090666H180.224c-9.898667 0-17.066667-8.533333-18.090667-18.090666L101.376 493.226667c0-9.898667 8.192-18.090667 18.090667-18.090667h786.090666c9.898667 0 18.090667 8.192 18.090667 18.090667l-58.709333 413.696z" fill="#7DBAB5" p-id="5342"></path><path d="M791.552 119.808c-6.826667-16.725333-20.821333-20.821333-32.085333-20.821333H248.490667c-11.605333 0-22.869333 5.802667-29.013334 20.821333l-119.466666 361.813333c0 11.605333 9.216 20.821333 20.821333 20.821334h781.312c11.605333 0 20.821333-9.216 20.821333-20.821334l-131.413333-361.813333z m64.170667 348.842667H167.594667c-10.24 0-18.432-8.192-18.432-18.432l105.472-302.421334c5.461333-13.312 15.36-18.432 25.6-18.432h449.877333c10.24 0 22.186667 3.754667 28.330667 18.432l116.053333 302.421334c-0.682667 10.24-8.874667 18.432-18.773333 18.432z" fill="#7DBAB5" p-id="5343"></path></svg>