<?xml version="1.0" standalone="no"?><!DOCTYPE svg PUBLIC "-//W3C//DTD SVG 1.1//EN" "http://www.w3.org/Graphics/SVG/1.1/DTD/svg11.dtd"><svg t="1730978565158" class="icon" viewBox="0 0 1024 1024" version="1.1" xmlns="http://www.w3.org/2000/svg" p-id="9157" xmlns:xlink="http://www.w3.org/1999/xlink" width="16" height="16"><path d="M988.938518 438.703589l-105.286814-22.674798a384.038388 384.038388 0 0 0-41.152454-99.29821l58.40168-90.545636c20.729781-20.729781 7.217035-41.920224-14.229331-63.366591l-25.848246-25.848245c-21.395181-21.395181-42.636809-34.907928-63.315405-14.178147L706.962311 181.193642a382.349295 382.349295 0 0 0-99.29821-41.203639L584.938119 34.703189c0-29.277617-24.517445-34.703189-54.818755-34.703189h-36.545836c-30.30131 0-54.869939 5.425572-54.869939 34.703189l-22.674798 105.286814a383.475357 383.475357 0 0 0-99.349395 41.203639L226.184945 122.740778c-20.729781-20.678596-41.920224-7.16585-63.366591 14.229331l-25.848245 25.848245c-21.395181 21.446366-34.907928 42.636809-14.229331 63.366591L181.193642 316.730581a380.506648 380.506648 0 0 0-41.152454 99.29821l-105.337999 22.674798c-29.277617 0-34.703189 24.568629-34.703189 54.869939v36.545836c0 30.30131 5.425572 54.818754 34.703189 54.818755l105.337999 22.725982c8.957313 34.856743 22.828351 68.331501 41.152454 99.29821l-58.452864 90.545637c-20.678596 20.678596-7.16585 41.920224 14.229331 63.315405l25.848245 25.848246c21.446366 21.446366 42.636809 34.959112 63.366591 14.229331l90.494451-58.40168a381.530341 381.530341 0 0 0 99.349395 41.152454l22.674798 105.286814c0 29.277617 24.568629 34.754374 54.869939 34.754374h36.545836c30.30131 0 54.818754-5.476757 54.818755-34.754374l22.725982-105.286814a380.506648 380.506648 0 0 0 99.29821-41.152454l90.545637 58.40168c20.678596 20.729781 41.920224 7.217035 63.315405-14.229331l25.848246-25.848246c21.446366-21.395181 34.959112-42.636809 14.229331-63.315405l-58.40168-90.545637c18.06818-30.608417 32.092772-63.980806 41.152454-99.29821l105.286814-22.725982c29.277617 0 34.754374-24.517445 34.754374-54.818755v-36.545836c0-30.30131-5.476757-54.869939-34.754374-54.869939zM511.846446 749.496751a237.650305 237.650305 0 1 1 0-475.351794 237.650305 237.650305 0 0 1 0 475.351794z m0-347.338998a109.637509 109.637509 0 1 0-0.051185 219.326202A109.637509 109.637509 0 0 0 511.846446 402.157753z" fill="#99A9B4" p-id="9158"></path></svg>