<?xml version="1.0" standalone="no"?><!DOCTYPE svg PUBLIC "-//W3C//DTD SVG 1.1//EN" "http://www.w3.org/Graphics/SVG/1.1/DTD/svg11.dtd"><svg t="1730947857076" class="icon" viewBox="0 0 1028 1024" version="1.1" xmlns="http://www.w3.org/2000/svg" p-id="3727" xmlns:xlink="http://www.w3.org/1999/xlink" width="16.0625" height="16"><path d="M491.230389 512m-470.460778 0a470.460777 470.460777 0 1 0 940.921555 0 470.460777 470.460777 0 1 0-940.921555 0Z" fill="#70C4FF" p-id="3728"></path><path d="M484.999505 57.145509s-47.072247 265.851027 55.3884 285.237382 146.77469-8.307845 199.38827 44.309889 170.842516 34.394477 174.464736-19.386355c0 0-72.004089-268.621693-429.241406-310.160916zM193.792937 864.796774s108.666607 16.528457 208.477052-25.106306c105.704861-44.093885 201.465231-149.807054 147.634552-275.558743C465.239297 366.388408 383.373796 471.017403 412.102323 315.785327c28.724373-155.232076-61.527897-217.100595-124.48059-217.100595s-337.672343 410.465677-93.828796 766.112042z" fill="#A3D9FF" opacity=".26" p-id="3729"></path><path d="M170.971288 856.285387s94.27742 15.63121 180.878392-23.739665c91.71445-41.692918 174.79705-141.665366 128.090348-260.546468-73.457962-186.972196-144.485879-88.038229-119.562346-234.81292s-53.390363-205.274378-108.001979-205.274378c-54.619924 0-292.971985 388.105114-81.404415 724.373431z" fill="#A3D9FF" opacity=".26" p-id="3730"></path><path d="M184.812157 147.364547c149.416585 22.929651 95.585906 150.558913 137.710832 299.792726 27.336963 96.815467 68.614488 82.667208 105.580242 154.471908 56.464266 74.662599-216.003959 324.005939-362.093252 115.703352-144.801577-357.540553 118.802178-569.967986 118.802178-569.967986z" fill="#9EE3C3" p-id="3731"></path><path d="M210.005695 815.165711c-62.587147 0-117.086608-30.535483-157.595657-88.299927l-1.088328-1.549413-0.710321-1.752955c-77.100952-190.365951-39.524571-340.318392 5.574564-432.589467 48.862588-99.972448 115.395961-154.284982 118.204013-156.54887l5.703335-4.594238 7.24444 1.113251c116.463519 17.870174 123.40057 95.747909 131.425948 185.925408 3.402062 38.199469 7.256902 81.499955 19.756054 125.772459 14.555344 51.546022 32.479518 68.020478 53.240822 87.099443 15.84306 14.559498 33.779696 31.042261 50.511695 63.106388 14.061027 19.768516 13.288397 47.711951-2.23481 78.912061-34.311398 68.971726-132.015804 143.405859-230.031755 143.40586z m-129.307447-105.850248c34.340476 48.189653 77.836196 72.61887 129.307447 72.618869 90.106882 0 174.211347-72.585638 200.27721-124.97906 9.790795-19.685438 11.456518-36.201433 4.569314-45.30683l-0.864015-1.142329-0.65632-1.275254c-14.20226-27.586198-28.707757-40.916135-44.060654-55.022855-22.427026-20.615916-45.622529-41.925538-62.736688-102.539571-13.342398-47.263328-17.342626-92.204613-20.87346-131.857956-7.668141-86.110809-12.382842-139.056703-95.884988-154.750221-16.445378 14.85858-66.662145 64.065944-104.363144 141.78583-60.39803 124.517975-61.980675 259.927534-4.714702 402.469377z" fill="#6E6E96" p-id="3732"></path><path d="M531.245122 43.250639s-73.703043 251.225066 88.258387 251.225066c164.578401 0 195.433736 148.984577 298.359623 19.049888-109.759089-264.405462-386.61801-270.274954-386.61801-270.274954z" fill="#9EE3C3" p-id="3733"></path><path d="M838.290596 383.332257h-0.02077c-26.531102-0.004154-49.963377-13.155472-77.100951-28.383751-36.633441-20.557761-78.156048-43.861265-141.665366-43.861266-40.600436 0-71.792239-14.164875-92.707238-42.095848-56.181799-75.032298-13.342398-224.112416-11.493903-230.422224l3.580681-12.204223 12.71931 0.270005c2.953439 0.062309 73.325036 1.939882 158.181361 37.256529 78.558978 32.695522 184.558767 101.438782 243.432308 243.257843l3.746838 9.026473-6.06888 7.659833c-32.595828 41.148754-61.158198 59.496629-92.60339 59.496629z m-294.425858-322.55622c-3.41037 14.227184-8.573696 38.83502-11.149128 66.529219-5.088555 54.82762 2.068653 96.944238 20.698995 121.80131 14.501343 19.34897 36.1142 28.75345 66.08475 28.75345 72.195169 0 119.732656 26.676489 157.932126 48.110728 24.022133 13.479478 42.99725 24.130135 60.842499 24.134289h0.012462c11.822063 0 30.6601-4.270232 60.335721-39.304413-44.135424-100.321377-118.266322-172.877938-220.465271-215.738108-58.719846-24.628605-110.913879-32.076588-134.292154-34.286475z" fill="#6E6E96" p-id="3734"></path><path d="M487.076466 37.385301C227.248627 37.385301 20.769611 248.018238 20.769611 507.846078s206.479015 470.460777 466.306855 470.460777 470.460777-210.632938 470.460777-470.460777S746.904306 37.385301 487.076466 37.385301z m339.840691 523.921757c-16.607381 57.984601-116.833218 40.068734-156.64441 83.186447-32.392286 35.084028-1.050942 134.304616-44.538355 155.290231-50.05061 24.142596-106.178408 37.65946-165.46734 37.65946-65.665204 0 80.062698-119.778349 26.119863-149.001193-19.191121-10.401421-29.040071 46.889475-38.079006-80.357626-3.318984-46.727472-70.550216-68.394331-114.573484-175.374446-11.057741-26.871723-31.715197-216.074576-39.815345-205.26607-49.847068 66.462757-8.307845 274.76119 38.768556 383.544107 29.754545 68.755722-171.735609 188.259912-171.735609 81.429339 0-211.584186-95.498674-86.966517-82.027503-236.316639C97.84564 246.356669 249.659038 74.770601 460.267052 74.770601c88.848244 0 179.1919 25.550776 243.702313 76.681406 30.506405 24.163366 55.234705 54.063299 71.302076 89.666566 28.196825 62.487453-197.224077 22.327332-176.728624 32.583367 41.796766 20.919153 254.959442 98.663962 232.411952 92.536927-294.151699-79.933927-11.23636 67.974784 10.642349 89.870109 36.500515 36.492207-5.113478 71.783931-14.679961 105.198082z" fill="#6E6E96" opacity=".2" p-id="3735"></path><path d="M487.076466 994.922544C218.500467 994.922544 0 776.417924 0 507.846078 0 239.270078 218.500467 20.769611 487.076466 20.769611c268.571846 0 487.076466 218.500467 487.076466 487.076467a487.628938 487.628938 0 0 1-19.199428 135.833259 16.640613 16.640613 0 0 1-20.582685 11.336054 16.615689 16.615689 0 0 1-11.336054-20.582685 454.47233 454.47233 0 0 0 17.886789-126.586628C940.921554 257.593029 737.325361 54.00099 487.076466 54.00099 236.823418 54.00099 33.231378 257.593029 33.231378 507.846078c0 250.248895 203.592039 453.845088 453.845088 453.845088a16.615689 16.615689 0 0 1 0 33.231378z" fill="#6E6E96" p-id="3736"></path><path d="M911.852406 723.77942c-30.149168-8.822931-48.796125-40.695977-41.460298-70.811913 7.331673-30.128398-4.37408-64.992268-26.011862-77.483113s-57.922292-4.963937-80.644247 16.723692c-22.709493 21.70009-59.625401 21.916094-82.052427 0.506778-22.414565-21.405162-58.462302-28.711911-80.104238-16.221066-21.637781 12.494998-33.36015 47.263328-26.0534 77.250492 7.298441 29.995473-10.966355 61.635899-40.592129 70.300981-29.634082 8.681698-53.872218 36.222202-53.872218 61.199737s24.341985 52.542963 54.09653 61.262046c29.758699 8.706621 48.02765 40.808133 40.587974 71.314538-7.431367 30.518867 4.195462 65.702589 25.833243 78.193434 21.641935 12.494998 57.689673 5.200711 80.104238-16.212759 22.422873-21.421777 59.342934-21.185004 82.052427 0.506778 22.721955 21.691782 59.006466 29.206228 80.644247 16.719538 21.637781-12.494998 33.239686-47.782568 25.76678-78.438515-7.464598-30.655947 11.194821-62.965154 41.468606-71.829624 30.273786-8.847854 55.03947-36.542054 55.039471-61.523743 0-24.977535-24.665991-52.638503-54.802697-61.457281z m-187.998215 120.289282c-31.922893 0-57.801829-25.874782-57.801829-57.793521s25.878936-57.797675 57.801829-57.797675c31.927047 0 57.789367 25.878936 57.789367 57.797675 0 31.914585-25.86232 57.793521-57.789367 57.793521z" fill="#FFFFFF" p-id="3737"></path><path d="M819.381942 1021.761036h-0.008308c-24.607836 0-50.229228-10.442961-68.548026-27.930974-7.597524-7.256902-17.753864-11.248822-28.612216-11.248821-10.563424 0-20.370835 3.813301-27.61943 10.737889-18.023869 17.222162-43.358641 27.498966-67.771242 27.498966-12.868851 0-24.832147-2.978362-34.589711-8.611081-28.861452-16.665536-44.081423-60.061562-34.647866-98.805196 5.042862-20.678225-7.634909-43.088636-27.677584-48.94982-37.875463-11.09928-67.542776-45.88838-67.542776-79.202837 0-33.318611 29.567619-68.082786 67.310156-79.140527 19.913903-5.823799 32.591674-27.781432 27.685892-47.944571-9.30894-38.199469 6.006572-81.188411 34.872178-97.858102 9.757563-5.628565 21.712552-8.602773 34.577249-8.602773 24.412601 0 49.751527 10.280958 67.77955 27.494812 7.256902 6.928742 17.068467 10.742043 27.636045 10.742043 10.850045 0 21.006385-3.996073 28.595601-11.244668 18.327105-17.496321 43.952652-27.939281 68.556334-27.939281 12.789927 0 24.665991 2.953439 34.348783 8.540464 28.857298 16.661382 44.156194 59.745864 34.826485 98.090721-4.939014 20.29191 8.13338 42.482163 28.549908 48.45135 38.270086 11.194821 68.248943 46.075306 68.248943 79.402224 0 33.335226-30.082705 68.240635-68.485717 79.464534-20.536992 6.010726-33.617693 28.666218-28.554062 49.464907 9.475097 38.868251-5.715797 82.376433-34.581403 99.050277-9.686947 5.587025-21.563011 8.540464-34.348783 8.540464z m-97.164397-76.565096c20.516222 0 39.848577 7.672294 54.432998 21.596242 11.182359 10.67558 27.955897 17.579399 42.731399 17.579399h0.004154c6.235037 0 11.647598-1.221253 15.656133-3.534988 12.868851-7.431367 22.996114-33.007067 16.948003-57.822598-9.807411-40.288892 14.584421-82.54259 54.378997-94.194342 23.810283-6.961974 41.601532-28.749296 41.601531-43.582952 0-14.862734-16.985388-36.392513-41.360604-43.520644-39.669958-11.610213-64.06179-53.406979-54.374843-93.176631 5.902724-24.258906-4.324233-49.444137-17.197238-56.87135-4.004381-2.313735-9.416942-3.534988-15.656133-3.534988-14.767194 0-31.544886 6.903819-42.735553 17.587707-14.567805 13.923948-33.896006 21.587934-54.416382 21.592088h-0.004154c-20.225448 0-39.204719-7.489522-53.448518-21.08531-11.078511-10.58004-27.158344-17.151545-41.967077-17.151545-6.318116 0-11.809601 1.242023-15.888753 3.597297-12.868851 7.431367-23.10827 32.516904-17.234623 56.634576 9.645408 39.649188-14.355955 81.217489-53.510827 92.669853-23.81859 6.978589-40.421818 28.400367-40.421818 43.258947 0 14.854426 16.698768 36.301127 40.662745 43.325409 39.287797 11.493903 63.285006 53.519135 53.494212 93.68341-6.006572 24.670144 4.145614 50.14615 17.018619 57.573362 4.083306 2.359428 9.583099 3.605605 15.897061 3.605605 14.800425 0 30.880258-6.571505 41.950461-17.147391 14.231338-13.591634 33.210609-21.081156 53.44021-21.081156z m1.636646-82.434588c-42.178927 0-76.494479-34.311398-76.494479-76.486171s34.315552-76.490325 76.494479-76.490325c42.170619 0 76.482017 34.315552 76.482017 76.490325s-34.311398 76.486171-76.482017 76.486171z m0-115.591195c-21.563011 0-39.109178 17.542014-39.109179 39.105024 0 21.558857 17.546168 39.100871 39.109179 39.100871 21.554703 0 39.096717-17.542014 39.096716-39.100871 0-21.563011-17.53786-39.105024-39.096716-39.105024z" fill="#6E6E96" p-id="3738"></path></svg>